<svg width="400" height="418" viewBox="0 0 400 418" fill="none" xmlns="http://www.w3.org/2000/svg">
<rect x="28" y="36" width="345" height="345" rx="64" fill="#1A201F"/>
<path d="M99.9983 243.621L99.9983 279.015C99.9983 295.584 113.43 309.015 129.998 309.015L262.746 309.015C293.003 309.015 310.468 274.673 292.647 250.222L197.386 119.523C192.115 112.292 183.706 108.015 174.758 108.015L141.498 108.015" stroke="#F7DFB9" stroke-width="20"/>
<path d="M300.5 173.407L300.5 138.013C300.5 121.444 287.069 108.013 270.5 108.013L137.753 108.013C107.495 108.013 90.0302 142.355 107.852 166.806L203.113 297.505C208.383 304.736 216.792 309.013 225.74 309.013L259 309.013" stroke="#F7DFB9" stroke-width="20"/>
</svg>
